PathFileType	3	(X/Y/Z)	D:\minhoCalibration\240510\subject5_KPNP\preferred\preferred09.trc
DataRate	CameraRate	NumFrames	NumMarkers	Units	OrigDataRate	OrigDataStartFrame	OrigNumFrames
200.0	200.0	24	10	mm	200.0	415	136	
Frame#	Time	Left_Ankle_Outer1			Left_Ankle_Inner1			Left_Knee_Outer1			Left_Knee_Inner1			Left_Wrist1			Right_Wrist1			Right_Knee_Inner1			Right_Knee_Outer1			Right_Ankle_Inner1			Right_Ankle_Outer1			
		X1	Y1	Z1	X2	Y2	Z2	X3	Y3	Z3	X4	Y4	Z4	X5	Y5	Z5	X6	Y6	Z6	X7	Y7	Z7	X8	Y8	Z8	X9	Y9	Z9	X10	Y10	Z10	
415	2.065	-505.54825	74.659111	-565.62463	-542.62738	83.244278	-531.37592	-383.87637	533.771	-515.39178	-442.62711	516.98419	-443.90933	-410.74902	983.13525	-657.23822	-606.70911	1171.4695	-469.15524	-484.28732	932.86713	-47.159451	-542.43549	1000.4062	-46.421055	-489.46765	742.57581	350.53052	-578.45789	781.22327	359.4584
416	2.07	-505.84042	74.72789	-565.4389	-542.6972	83.072174	-531.39386	-384.37704	533.8833	-515.94867	-443.4213	517.1391	-444.21216	-408.97137	983.7901	-656.22339	-607.6709	1170.4819	-469.54517	-487.65829	925.203	-48.652603	-545.13373	993.21191	-47.318638	-498.48441	726.64313	344.96234	-587.75256	764.86926	353.57938
417	2.075	-506.21371	74.832664	-565.03619	-541.1488	82.482918	-532.52588	-385.29013	533.64343	-515.71771	-445.1095	518.07739	-443.22018	-407.09616	984.45264	-655.40594	-608.47827	1169.6036	-469.9548	-490.58157	917.39453	-50.354366	-547.82367	985.96106	-48.310402	-507.28537	710.07599	338.71011	-596.5097	747.81494	346.49088
418	2.08	-506.30225	74.895317	-564.84729	-543.52222	83.379799	-530.52051	-386.05661	533.64679	-515.29224	-446.52951	518.37665	-443.3562	-405.50027	984.91022	-654.67786	-609.08508	1168.9432	-470.39304	-493.7981	909.52533	-52.097973	-550.60248	978.39557	-49.451523	-516.50763	693.21014	331.81812	-605.99408	730.96063	339.3912
419	2.085	-506.52783	74.906334	-564.47064	-543.00818	83.313026	-530.49426	-386.28333	533.96082	-514.85846	-447.74075	517.96564	-444.75009	-403.81204	985.45905	-654.06183	-609.64258	1168.3901	-470.69293	-497.08594	901.55566	-53.899757	-553.4726	970.73315	-50.638184	-525.60468	676.2561	324.37958	-615.20538	713.64801	331.37991
420	2.09	-506.70297	74.937584	-564.19385	-543.65326	83.266899	-530.13928	-386.97717	533.98254	-514.05103	-449.64548	518.46539	-444.84586	-402.08752	986.22949	-653.52393	-610.12006	1167.86	-471.02158	-500.33551	893.55237	-55.846123	-556.38696	962.9043	-51.958469	-534.95294	659.13654	316.34155	-624.2691	696.3269	322.7337
421	2.095	-506.73795	74.97554	-563.99603	-543.81165	83.327568	-529.88733	-387.5582	534.03967	-513.16962	-451.57816	519.31439	-443.85672	-400.03253	987.24622	-653.30316	-610.58875	1167.1409	-471.25021	-503.95633	885.37585	-57.806557	-559.63574	954.99982	-53.286316	-543.97229	641.974	307.89655	-633.4696	678.70184	313.46924
422	2.1	-507.09628	74.54583	-563.70538	-544.36951	83.292755	-528.89148	-388.0423	534.05957	-512.40179	-453.12109	519.41046	-444.22037	-398.70547	987.91095	-652.67902	-611.14111	1166.3818	-471.37256	-506.9884	877.27142	-59.873741	-562.93555	946.89893	-54.78492	-553.45752	624.7135	299.42136	-642.7984	661.09772	303.78552
423	2.105	-506.9046	74.893417	-563.64349	-544.72552	83.664055	-528.57373	-388.42078	534.099	-511.69449	-455.21786	518.58392	-446.1951	-397.04456	988.8338	-652.11926	-611.72198	1165.4177	-471.55188	-510.36072	869.2041	-62.108906	-566.47766	938.65485	-56.404774	-561.66827	607.42596	288.45789	-651.82019	643.44666	293.49686
424	2.11	-506.60413	75.172638	-563.76343	-544.93304	83.418182	-528.99231	-388.56726	534.09265	-511.33417	-455.67172	518.95056	-446.52298	-395.44852	989.92651	-651.36621	-612.4436	1164.3693	-471.70325	-513.76349	861.09961	-64.475975	-570.05713	930.23761	-58.301323	-570.67847	589.97217	277.94681	-660.96936	625.38025	282.22147
425	2.115	-506.74432	74.895424	-563.69733	-544.87335	83.522697	-529.04309	-388.77686	534.17401	-511.05719	-456.85257	519.48431	-446.14294	-393.94534	990.94696	-650.43805	-613.31207	1163.2015	-471.82965	-517.49805	853.00751	-66.90361	-573.96265	921.75879	-60.291405	-579.71826	571.94647	266.90482	-670.12653	607.68036	270.62198
426	2.12	-506.61517	74.867836	-563.79437	-544.65448	83.004913	-529.59137	-388.82208	534.24353	-511.18546	-457.53864	519.5575	-446.82022	-392.07867	992.15619	-649.51569	-614.2616	1161.677	-472.13089	-520.30646	844.95337	-69.657646	-577.76703	913.1803	-62.672279	-588.48444	554.67535	255.31232	-679.09467	589.92188	258.28046
427	2.125	-506.4826	74.85817	-563.90515	-544.8244	83.345604	-529.52985	-388.96719	534.28851	-511.418	-457.8483	518.97894	-448.62491	-390.77115	993.19525	-648.03241	-615.37122	1160.2609	-472.38309	-523.67706	836.92041	-72.534119	-581.8772	904.59827	-65.1884	-596.86182	537.48932	242.93512	-687.71741	572.29279	245.15259
428	2.13	-506.39868	74.764374	-564.0296	-544.25073	83.312859	-529.68951	-389.0864	534.34259	-511.83112	-458.16824	518.93091	-449.33185	-388.79187	994.83844	-646.69324	-616.68268	1158.7915	-472.47064	-526.97076	828.8595	-75.596069	-585.91803	895.90533	-67.962166	-605.56921	520.69769	230.49242	-696.39697	554.78949	231.658
429	2.135	-506.19977	74.761734	-564.24933	-543.69293	83.30732	-531.00342	-389.3035	534.45972	-512.38556	-458.62347	519.33539	-449.11215	-387.04871	995.89569	-645.22638	-617.94897	1157.2072	-472.94293	-530.19	820.7099	-78.917076	-589.99146	886.95947	-71.101578	-614.3363	503.61966	217.66283	-704.79895	537.73889	217.5704
430	2.14	-505.96399	74.718788	-564.53455	-544.61768	83.039108	-530.67346	-389.29044	534.4574	-513.08051	-458.6871	518.91492	-450.68747	-385.38116	997.02258	-643.56561	-619.45618	1155.629	-473.30417	-533.41669	812.50079	-82.571404	-593.98157	877.93762	-74.530273	-622.61182	486.69934	203.76944	-713.10583	520.30066	202.51428
431	2.145	-505.83804	74.618912	-564.62189	-543.37408	83.41748	-531.15833	-389.13354	534.73871	-513.86365	-458.88925	518.90637	-451.29306	-383.55606	998.0528	-641.91833	-621.00665	1154.0044	-473.65753	-536.72357	804.03925	-86.484795	-597.76599	868.87988	-78.013016	-631.17102	469.63736	189.52567	-721.33545	503.46707	187.186
432	2.15	-505.64111	74.536072	-564.75781	-543.56818	82.886864	-531.71118	-389.13397	534.86084	-514.38776	-459.29776	519.46472	-450.68405	-381.91647	999.30591	-640.18292	-622.64624	1152.2419	-474.19592	-540.12524	795.35419	-90.785309	-601.48633	859.76685	-81.746353	-638.90051	453.44824	174.28017	-729.44843	486.64957	171.09048
433	2.155	-505.4838	74.508026	-564.99268	-544.38251	83.131081	-530.76752	-389.38339	534.76465	-514.66412	-459.39102	518.95117	-452.44299	-380.11371	1000.3991	-638.46979	-624.15729	1150.3496	-474.86865	-543.71045	786.46936	-95.383621	-605.02539	850.29901	-85.322891	-646.68152	436.90765	158.65878	-737.29999	470.43729	154.85962
434	2.16	-505.44525	74.433319	-565.04047	-543.70996	82.856407	-531.33447	-389.31305	534.63135	-515.04218	-459.25397	518.96844	-452.97192	-378.5072	1001.4238	-636.68915	-625.86304	1148.4575	-475.18317	-547.31122	777.31793	-100.15472	-608.88672	841.02185	-89.670219	-654.01581	421.07712	142.45341	-744.95013	454.47134	138.1655
435	2.165	-505.35178	74.382324	-565.18402	-543.96515	82.6717	-531.31964	-389.0321	534.76862	-515.45514	-459.87262	519.10596	-453.5976	-376.7374	1002.4745	-634.94202	-627.47485	1146.3577	-475.72919	-550.68164	768.00421	-105.25398	-612.69885	831.48669	-93.720543	-661.57129	405.68091	126.21379	-752.3277	438.88757	121.12215
436	2.17	-505.28455	74.262489	-565.24371	-544.52893	82.683861	-531.86041	-388.96222	534.65161	-515.65887	-460.24472	519.1369	-454.28836	-375.2077	1003.4721	-633.1546	-629.0929	1144.2062	-476.15491	-554.31464	758.81903	-110.48894	-615.66034	821.75885	-98.418114	-669.57922	389.50851	109.85258	-759.39545	423.61078	103.61878
437	2.175	-505.13721	74.156525	-565.26935	-544.61981	83.353111	-531.46997	-388.95898	534.46436	-515.72461	-460.67224	519.13507	-454.85449	-373.25443	1004.5925	-631.58514	-630.68073	1142.042	-476.52441	-557.91467	749.50934	-115.88095	-619.76697	812.32904	-102.87415	-675.64166	374.8345	91.750229	-766.17737	408.5694	85.74025
438	2.18	-505.03983	74.026978	-565.32184	-544.625	83.32753	-531.5567	-388.90976	534.24713	-515.80432	-461.10699	519.13489	-455.55484	-371.52686	1005.5992	-629.96912	-632.02783	1139.5863	-477.25107	-561.4057	740.1189	-121.4229	-623.36316	802.80652	-107.85265	-682.87195	359.5654	74.401077	-772.76935	393.94315	67.460609
